<svg width="111" height="27" viewBox="0 0 111 27" fill="none" xmlns="http://www.w3.org/2000/svg">
<g clip-path="url(#clip0_8494_2094)">
<path fill-rule="evenodd" clip-rule="evenodd" d="M8.30185 19.9656C17.6444 25.7382 25.3912 11.6299 15.6325 6.78087C15.1469 6.57305 14.6381 6.41142 14.0831 6.29596C13.3894 6.15742 12.9962 6.2036 12.6262 5.74179C12.025 4.9798 12.3719 3.45582 14.0137 3.70982C27.1256 5.9727 24.3043 25.2995 11.1231 23.6832C9.87435 23.4985 8.83372 22.8057 8.11685 23.9141C7.7931 24.4221 7.93185 25.0686 8.2556 25.4611C8.5331 25.8075 9.06498 25.9461 9.6431 26.0846C18.6387 28.5322 27.38 19.4576 24.8594 10.5446C24.1425 7.77376 22.6856 5.55706 20.535 3.77909C18.315 2.13966 15.3781 0.569498 12.4181 1.19294C9.66623 2.07039 8.87998 5.67252 10.7531 7.58904C11.5162 8.37412 12.0712 8.67429 13.5281 8.85902C17.8062 9.66719 18.9856 15.3706 15.355 17.8182C13.6437 19.042 10.915 18.9034 9.3656 17.4025C8.02435 16.3173 7.3306 14.0082 7.9781 12.2302C8.92623 5.99579 0.0924756 5.37234 0.0693506 12.3919C-0.0925244 14.216 0.0462256 16.0402 0.670601 17.7489C1.17935 18.8111 2.72873 18.6494 3.0756 17.5873C3.2606 16.9869 2.9831 16.5251 2.86748 15.9478C2.49748 14.216 2.54373 12.2995 3.12185 10.6139C3.32998 10.1983 3.9081 9.92119 4.4631 10.0135C6.79873 10.8679 4.11623 12.7844 5.5731 16.3173C6.52123 18.6032 6.7756 17.7489 5.7581 18.8111C5.41123 19.1574 4.0931 20.4967 3.74623 20.8199L2.72873 21.859C2.45123 22.1361 1.98873 22.4825 2.01185 23.1521C2.0581 24.2143 3.3531 24.9532 4.2781 24.0064L8.30185 19.9656Z" fill="#2B45E2"/>
<path fill-rule="evenodd" clip-rule="evenodd" d="M9.41187 15.3013C11.1925 18.5109 16.0719 17.1716 15.9562 13.5464C14.3837 15.74 11.9787 16.502 9.41187 15.3013Z" fill="#2B45E2"/>
<path fill-rule="evenodd" clip-rule="evenodd" d="M7.49251 0.523158C6.19751 0.846427 6.70626 2.67058 7.90876 2.3935C9.04189 2.1395 8.78751 0.269162 7.49251 0.523158Z" fill="#2B45E2"/>
<path fill-rule="evenodd" clip-rule="evenodd" d="M5.57305 3.15525C4.57868 3.36306 4.7868 5.0025 5.91993 4.79468C6.96055 4.58686 6.68305 2.92434 5.57305 3.15525Z" fill="#2B45E2"/>
<path fill-rule="evenodd" clip-rule="evenodd" d="M7.65435 5.57987C6.72935 5.83387 7.1456 7.19621 8.04748 6.96531C8.9031 6.7344 8.57935 5.30278 7.65435 5.57987Z" fill="#2B45E2"/>
<path d="M29.3688 19.7346V7.104H32.0281V17.4255H38.295V19.7346H29.3688Z" fill="white"/>
<path d="M44.8394 19.7346C44.7701 19.5037 44.7007 19.1804 44.6776 18.9033C44.0763 19.5499 43.1051 19.9886 41.8332 19.9886C39.7057 19.9886 38.7113 18.9495 38.7113 17.4255C38.7113 14.7239 40.5151 14.4238 43.0126 14.0774C44.2613 13.9158 44.5851 13.6618 44.5851 13.0152C44.5851 12.4149 43.9838 12.0454 43.0126 12.0454C41.8794 12.0454 41.4401 12.5996 41.3244 13.4309H39.0119C39.0582 11.4913 40.1219 10.1289 43.1282 10.1289C46.1113 10.1289 47.1288 11.4682 47.1288 13.8234V19.7346H44.8394ZM44.6776 15.1396C44.4232 15.3936 43.9838 15.509 43.0819 15.6937C41.6713 15.9708 41.2088 16.3634 41.2088 17.1484C41.2088 17.8412 41.6251 18.1875 42.4113 18.1875C43.6832 18.1875 44.6313 17.2639 44.6544 16.1556L44.6776 15.1396Z" fill="white"/>
<path d="M48.2388 19.7346V6.94238H50.6669V11.5836C51.3606 10.5907 52.2856 10.1289 53.4419 10.1289C55.87 10.1289 57.2806 12.1378 57.2806 14.9548C57.2806 18.1182 55.5925 19.9886 53.2338 19.9886C52.1006 19.9886 51.2219 19.5498 50.6206 18.6031L50.5975 19.7346H48.2388ZM54.7831 15.1165C54.7831 13.1999 54.0894 12.2301 52.6556 12.2301C51.2913 12.2301 50.5744 13.2461 50.5744 15.2781C50.5744 16.8482 51.4994 17.9566 52.6788 17.9566C53.9275 17.9566 54.7831 16.8021 54.7831 15.1165Z" fill="white"/>
<path d="M65.3282 10.8215C65.1894 9.52848 64.4032 8.90503 62.8076 8.90503C61.3276 8.90503 60.5413 9.43611 60.5413 10.3828C60.5413 11.191 61.0963 11.6297 62.5069 11.9761C63.9407 12.3224 65.3282 12.6688 66.2532 13.0844C67.3632 13.5693 68.2419 14.3544 68.2419 16.1555C68.2419 18.9263 66.1376 20.1732 63.2007 20.1732C60.0788 20.1732 57.9051 18.7878 57.8357 15.9477H60.3794C60.4257 17.2407 61.5126 18.0489 63.2007 18.0489C64.7732 18.0489 65.6519 17.3793 65.6519 16.2709C65.6519 15.532 65.2819 15.024 63.6863 14.6777C62.1138 14.3313 61.1194 14.1004 60.2176 13.7079C58.8763 13.1075 58.1132 12.1839 58.1132 10.5906C58.1132 8.32777 59.6626 6.71143 62.7382 6.71143C65.9294 6.71143 67.7332 8.44322 67.8257 10.8677H65.3282V10.8215Z" fill="white"/>
<path d="M71.225 15.6937C71.2944 17.1023 72.1037 18.0259 73.3294 18.0259C74.1387 18.0259 74.8325 17.6333 75.0175 16.9868H77.5612C76.9831 18.9033 75.4569 19.9886 73.445 19.9886C70.3231 19.9886 68.7506 18.2799 68.7506 14.8856C68.7506 11.9992 70.4156 10.1289 73.2831 10.1289C76.1506 10.1289 77.6769 11.9992 77.6769 15.6937H71.225ZM75.1331 14.1467C75.0869 12.7612 74.185 12.0916 73.2137 12.0916C72.2194 12.0916 71.41 12.8536 71.3175 14.1467H75.1331Z" fill="white"/>
<path d="M84.4063 19.7346C84.3369 19.5037 84.2676 19.1804 84.2444 18.9033C83.6432 19.5499 82.6719 19.9886 81.4001 19.9886C79.2726 19.9886 78.2782 18.9495 78.2782 17.4255C78.2782 14.7239 80.0819 14.4238 82.5794 14.0774C83.8282 13.9158 84.1519 13.6618 84.1519 13.0152C84.1519 12.4149 83.5507 12.0454 82.5794 12.0454C81.4463 12.0454 81.0069 12.5996 80.8913 13.4309H78.5788C78.6251 11.4913 79.6888 10.1289 82.6951 10.1289C85.6782 10.1289 86.6957 11.4682 86.6957 13.8234V19.7346H84.4063ZM84.2213 15.1396C83.967 15.3936 83.5276 15.509 82.6257 15.6937C81.2151 15.9708 80.7526 16.3634 80.7526 17.1484C80.7526 17.8412 81.1688 18.1875 81.9551 18.1875C83.2269 18.1875 84.1751 17.2639 84.1982 16.1556L84.2213 15.1396Z" fill="white"/>
<path d="M87.7825 19.7346V10.3598H90.1181V11.4913C90.9275 10.2444 91.8987 10.1289 92.8931 10.1289H93.2168V12.6689C92.9856 12.6227 92.7543 12.6227 92.5231 12.6227C90.9968 12.6227 90.2568 13.3847 90.2568 14.8856V19.7577H87.7825V19.7346Z" fill="white"/>
<path d="M101.773 16.3403C101.496 18.5108 99.7382 19.9655 97.4719 19.9655C94.9282 19.9655 93.1707 18.2799 93.1707 14.9317C93.1707 11.5836 94.9282 10.1289 97.5644 10.1289C99.9925 10.1289 101.658 11.5143 101.819 13.731H99.3219C99.1832 12.7612 98.4894 12.184 97.5413 12.184C96.5007 12.184 95.645 12.8536 95.645 14.8856C95.645 16.9175 96.5007 17.9104 97.4719 17.9104C98.4432 17.9104 99.2063 17.3563 99.2988 16.3403H101.773Z" fill="white"/>
<path d="M108.503 19.7346V13.9157C108.503 12.5072 108.017 12.0685 106.907 12.0685C105.658 12.0685 104.988 13.0845 104.988 14.3545V19.7115H102.513V6.94238H104.988V11.5836C105.358 10.7523 106.491 10.1289 107.739 10.1289C109.659 10.1289 111 11.2603 111 13.1076V19.7346H108.503Z" fill="white"/>
</g>
<defs>
<clipPath id="clip0_8494_2094">
<rect width="111" height="26" fill="white" transform="translate(0 0.5)"/>
</clipPath>
</defs>
</svg>
