<svg width="314" height="75" viewBox="0 0 314 75" fill="none" xmlns="http://www.w3.org/2000/svg">
<path fill-rule="evenodd" clip-rule="evenodd" d="M23.9089 55.7311C50.2531 72.009 72.0979 32.226 44.58 18.5526C43.2106 17.9666 41.776 17.5108 40.211 17.1853C38.2548 16.7946 37.1462 16.9248 36.1029 15.6226C34.4075 13.4739 35.3856 9.17657 40.0154 9.89279C76.9885 16.2737 69.0331 70.7719 31.8644 66.2141C28.3431 65.6932 25.4087 63.7398 23.3873 66.8652C22.4744 68.2976 22.8656 70.1207 23.7785 71.2276C24.561 72.2043 26.0608 72.595 27.691 72.9856C53.0571 79.8874 77.7058 54.2987 70.5981 29.1657C68.5767 21.3524 64.4685 15.1017 58.4042 10.0881C52.1442 5.46522 43.8627 1.03766 35.516 2.79566C27.7562 5.26989 25.5392 15.4273 30.821 20.8315C32.9729 23.0453 34.5379 23.8917 38.646 24.4126C50.7096 26.6915 54.0352 42.774 43.7975 49.6758C38.9721 53.1267 31.2775 52.736 26.9085 48.5038C23.1264 45.4436 21.1702 38.9324 22.996 33.9189C25.6696 16.3388 0.759987 14.5808 0.694779 34.3746C0.23832 39.5184 0.62957 44.6622 2.3902 49.4805C3.82478 52.4756 8.19374 52.0198 9.17186 49.0247C9.69353 47.3318 8.91103 46.0296 8.58499 44.4018C7.54165 39.5184 7.67207 34.1142 9.30228 29.3611C9.88915 28.1891 11.5194 27.4077 13.0844 27.6682C19.6704 30.0773 12.1062 35.4815 16.2144 45.4436C18.8879 51.8896 19.6052 49.4805 16.736 52.4756C15.7579 53.4522 12.041 57.2287 11.0629 58.1403L8.19374 61.0703C7.41124 61.8516 6.10707 62.8283 6.17228 64.7165C6.3027 67.7116 9.95436 69.7952 12.5627 67.1256L23.9089 55.7311Z" fill="#2B45E2"/>
<path fill-rule="evenodd" clip-rule="evenodd" d="M27.0391 42.5787C32.0601 51.6291 45.8191 47.8527 45.493 37.6302C41.0589 43.8158 34.2772 45.9645 27.0391 42.5787Z" fill="#2B45E2"/>
<path fill-rule="evenodd" clip-rule="evenodd" d="M21.6267 0.907439C17.975 1.819 19.4096 6.96279 22.8004 6.18145C25.9956 5.46523 25.2783 0.191215 21.6267 0.907439Z" fill="#2B45E2"/>
<path fill-rule="evenodd" clip-rule="evenodd" d="M16.2127 8.33014C13.4088 8.91614 13.9957 13.539 17.1909 12.953C20.1252 12.367 19.3427 7.67902 16.2127 8.33014Z" fill="#2B45E2"/>
<path fill-rule="evenodd" clip-rule="evenodd" d="M22.0826 15.1668C19.4742 15.883 20.648 19.7246 23.1911 19.0735C25.6038 18.4224 24.6909 14.3855 22.0826 15.1668Z" fill="#2B45E2"/>
<path d="M83.3125 55.08V19.4641H90.8115V48.5689H108.483V55.08H83.3125Z" fill="white"/>
<path d="M126.936 55.08C126.741 54.4289 126.545 53.5174 126.48 52.736C124.785 54.5592 122.046 55.7963 118.459 55.7963C112.46 55.7963 109.656 52.8663 109.656 48.5689C109.656 40.9509 114.743 40.1044 121.785 39.1278C125.306 38.672 126.219 37.9558 126.219 36.1327C126.219 34.4398 124.524 33.398 121.785 33.398C118.59 33.398 117.351 34.9607 117.025 37.3047H110.504C110.634 31.8353 113.634 27.9937 122.111 27.9937C130.523 27.9937 133.392 31.7702 133.392 38.4116V55.08H126.936ZM126.48 42.1229C125.763 42.8391 124.524 43.1647 121.981 43.6856C118.003 44.4669 116.699 45.5738 116.699 47.7876C116.699 49.7409 117.873 50.7176 120.09 50.7176C123.676 50.7176 126.35 48.1131 126.415 44.9878L126.48 42.1229Z" fill="white"/>
<path d="M136.523 55.08V19.0084H143.37V32.0957C145.327 29.2959 147.935 27.9937 151.195 27.9937C158.042 27.9937 162.02 33.6584 162.02 41.602C162.02 50.5222 157.26 55.7962 150.608 55.7962C147.413 55.7962 144.935 54.5591 143.24 51.8896L143.175 55.08H136.523ZM154.977 42.0578C154.977 36.6535 153.021 33.9188 148.978 33.9188C145.131 33.9188 143.109 36.7837 143.109 42.5135C143.109 46.9411 145.718 50.0664 149.043 50.0664C152.565 50.0664 154.977 46.8109 154.977 42.0578Z" fill="white"/>
<path d="M184.713 29.9471C184.322 26.3008 182.105 24.5428 177.606 24.5428C173.432 24.5428 171.215 26.0404 171.215 28.71C171.215 30.9889 172.78 32.226 176.758 33.2026C180.801 34.1793 184.713 35.156 187.322 36.328C190.452 37.6953 192.93 39.9091 192.93 44.9878C192.93 52.8011 186.996 56.3172 178.714 56.3172C169.911 56.3172 163.782 52.4105 163.586 44.4018H170.759C170.889 48.048 173.954 50.3269 178.714 50.3269C183.148 50.3269 185.626 48.4387 185.626 45.3133C185.626 43.2298 184.583 41.7973 180.084 40.8207C175.649 39.844 172.846 39.1929 170.302 38.086C166.52 36.3931 164.368 33.7886 164.368 29.296C164.368 22.9151 168.737 18.3573 177.41 18.3573C186.409 18.3573 191.495 23.2406 191.756 30.0773H184.713V29.9471Z" fill="white"/>
<path d="M201.337 43.6856C201.532 47.6574 203.815 50.2618 207.271 50.2618C209.553 50.2618 211.509 49.1549 212.031 47.3318H219.204C217.574 52.736 213.27 55.7963 207.597 55.7963C198.794 55.7963 194.359 50.978 194.359 41.4067C194.359 33.2678 199.054 27.9937 207.14 27.9937C215.226 27.9937 219.53 33.2678 219.53 43.6856H201.337ZM212.357 39.3231C212.226 35.4164 209.683 33.5282 206.945 33.5282C204.141 33.5282 201.858 35.6769 201.598 39.3231H212.357Z" fill="white"/>
<path d="M238.507 55.08C238.311 54.4289 238.116 53.5174 238.05 52.736C236.355 54.5592 233.616 55.7963 230.03 55.7963C224.031 55.7963 221.227 52.8663 221.227 48.5689C221.227 40.9509 226.313 40.1044 233.355 39.1278C236.877 38.672 237.789 37.9558 237.789 36.1327C237.789 34.4398 236.094 33.398 233.355 33.398C230.16 33.398 228.921 34.9607 228.595 37.3047H222.074C222.205 31.8353 225.204 27.9937 233.681 27.9937C242.093 27.9937 244.962 31.7702 244.962 38.4116V55.08H238.507ZM237.985 42.1229C237.268 42.8391 236.029 43.1647 233.486 43.6856C229.508 44.4669 228.204 45.5738 228.204 47.7876C228.204 49.7409 229.378 50.7176 231.595 50.7176C235.181 50.7176 237.855 48.1131 237.92 44.9878L237.985 42.1229Z" fill="white"/>
<path d="M248.031 55.08V28.6449H254.617V31.8353C256.9 28.3193 259.638 27.9937 262.442 27.9937H263.355V35.156C262.703 35.0258 262.051 35.0258 261.399 35.0258C257.095 35.0258 255.009 37.1744 255.009 41.4067V55.1452H248.031V55.08Z" fill="white"/>
<path d="M287.48 45.5087C286.698 51.6291 281.742 55.7312 275.351 55.7312C268.178 55.7312 263.223 50.978 263.223 41.5369C263.223 32.0958 268.178 27.9937 275.612 27.9937C282.459 27.9937 287.154 31.9004 287.611 38.1511H280.568C280.177 35.4164 278.221 33.7886 275.547 33.7886C272.613 33.7886 270.2 35.6769 270.2 41.4067C270.2 47.1365 272.613 49.9363 275.351 49.9363C278.09 49.9363 280.242 48.3736 280.503 45.5087H287.48Z" fill="white"/>
<path d="M306.455 55.08V38.672C306.455 34.7002 305.086 33.4631 301.956 33.4631C298.435 33.4631 296.544 36.328 296.544 39.9091V55.0149H289.566V19.0084H296.544V32.0957C297.587 29.7517 300.782 27.9937 304.303 27.9937C309.716 27.9937 313.498 31.1842 313.498 36.3931V55.08H306.455Z" fill="white"/>
</svg>
