<svg width="54" height="74" viewBox="0 0 54 74" fill="none" xmlns="http://www.w3.org/2000/svg">
<rect width="53.0256" height="54" rx="6" fill="white"/>
<path d="M8 46V18.7179C8.41758 13.1502 12.8718 8.41758 18.4396 8H45.0256V35.6996C44.7473 41.1282 40.4322 45.7216 35.1429 46H8ZM27.2088 16.4908H15.0989V16.63L21.3626 27.6264H27.4872C27.348 27.9048 27.2088 28.1832 27.0696 28.3223C26.2344 29.8535 25.3993 31.3846 24.4249 32.9158C24.4249 33.0549 24.2857 33.0549 24.2857 33.1941H18.3004C18.3004 33.1941 18.1612 33.1941 18.3004 33.3333L21.2234 38.6227H27.0696H27.2088L33.4725 27.7656L30.2711 22.1978H36.2564V22.0586C37.2308 20.5275 38.2051 18.7179 39.1795 17.0476C39.3187 16.9084 39.3187 16.7692 39.3187 16.63H33.3333C33.3333 16.63 33.1941 16.63 33.1941 16.7692L30.1319 22.337L27.2088 16.4908Z" fill="url(#paint0_linear_6168_338)"/>
<path d="M25.0127 72C25.0127 72.8284 25.6843 73.5 26.5127 73.5C27.3411 73.5 28.0127 72.8284 28.0127 72L25.0127 72ZM26.5127 54L25.0127 54L25.0127 72L26.5127 72L28.0127 72L28.0127 54L26.5127 54Z" fill="white"/>
<defs>
<linearGradient id="paint0_linear_6168_338" x1="7.69628" y1="8.50611" x2="44.8746" y2="45.1456" gradientUnits="userSpaceOnUse">
<stop stop-color="#F9B513"/>
<stop offset="1" stop-color="#EA601E"/>
</linearGradient>
</defs>
</svg>
