<svg width="26" height="24" viewBox="0 0 26 24" fill="none" xmlns="http://www.w3.org/2000/svg">
<path d="M20.5 15.75H18V18.25H20.5M20.5 10.75H18V13.25H20.5M23 20.75H13V18.25H15.5V15.75H13V13.25H15.5V10.75H13V8.25H23M10.5 5.75H8V3.25H10.5M10.5 10.75H8V8.25H10.5M10.5 15.75H8V13.25H10.5M10.5 20.75H8V18.25H10.5M5.5 5.75H3V3.25H5.5M5.5 10.75H3V8.25H5.5M5.5 15.75H3V13.25H5.5M5.5 20.75H3V18.25H5.5M13 5.75V0.75H0.5V23.25H25.5V5.75H13Z" fill="#020202"/>
<path d="M20.5 15.75H18V18.25H20.5M20.5 10.75H18V13.25H20.5M23 20.75H13V18.25H15.5V15.75H13V13.25H15.5V10.75H13V8.25H23M10.5 5.75H8V3.25H10.5M10.5 10.75H8V8.25H10.5M10.5 15.75H8V13.25H10.5M10.5 20.75H8V18.25H10.5M5.5 5.75H3V3.25H5.5M5.5 10.75H3V8.25H5.5M5.5 15.75H3V13.25H5.5M5.5 20.75H3V18.25H5.5M13 5.75V0.75H0.5V23.25H25.5V5.75H13Z" fill="url(#paint0_linear_8303_1434)"/>
<defs>
<linearGradient id="paint0_linear_8303_1434" x1="0.294924" y1="1.04967" x2="22.1616" y2="25.624" gradientUnits="userSpaceOnUse">
<stop stop-color="#F9B513"/>
<stop offset="1" stop-color="#EA601E"/>
</linearGradient>
</defs>
</svg>
