<svg width="149" height="36" viewBox="0 0 149 36" fill="none" xmlns="http://www.w3.org/2000/svg">
<path fill-rule="evenodd" clip-rule="evenodd" d="M11.4033 26.3749C23.8599 34.0717 34.1891 15.2606 21.1774 8.79524C20.5299 8.51816 19.8516 8.30265 19.1116 8.14871C18.1866 7.96398 17.6624 8.02556 17.1691 7.40981C16.3674 6.39382 16.8299 4.36185 19.0191 4.70051C36.5016 7.71768 32.7399 33.4868 15.1649 31.3317C13.4999 31.0854 12.1124 30.1617 11.1566 31.6395C10.7249 32.3169 10.9099 33.1789 11.3416 33.7023C11.7116 34.1641 12.4208 34.3488 13.1916 34.5336C25.1858 37.797 36.8408 25.6976 33.4799 13.8136C32.5241 10.1191 30.5816 7.16351 27.7141 4.79288C24.7541 2.60697 20.8383 0.51342 16.8916 1.34468C13.2224 2.5146 12.1741 7.31745 14.6716 9.87281C15.6891 10.9196 16.4291 11.3198 18.3716 11.5661C24.0758 12.6437 25.6483 20.2482 20.8074 23.5116C18.5258 25.1434 14.8874 24.9587 12.8216 22.9575C11.0333 21.5105 10.1083 18.4317 10.9716 16.0611C12.2358 7.74847 0.457448 6.91721 0.426615 16.2766C0.210781 18.7088 0.395781 21.141 1.22828 23.4193C1.90661 24.8355 3.97245 24.62 4.43495 23.2038C4.68161 22.4033 4.31161 21.7875 4.15745 21.0179C3.66411 18.7088 3.72578 16.1534 4.49661 13.906C4.77411 13.3518 5.54495 12.9823 6.28495 13.1055C9.39911 14.2446 5.82245 16.8 7.76495 21.5105C9.02911 24.5584 9.36828 23.4193 8.01161 24.8355C7.54911 25.2973 5.79161 27.083 5.32911 27.514L3.97245 28.8994C3.60245 29.2689 2.98578 29.7307 3.01661 30.6235C3.07828 32.0398 4.80495 33.025 6.03828 31.7627L11.4033 26.3749Z" fill="#2B45E2"/>
<path fill-rule="evenodd" clip-rule="evenodd" d="M12.8867 20.1558C15.2609 24.4353 21.7667 22.6496 21.6126 17.816C19.5159 20.7408 16.3092 21.7568 12.8867 20.1558Z" fill="#2B45E2"/>
<path fill-rule="evenodd" clip-rule="evenodd" d="M10.3255 0.451878C8.5988 0.882902 9.27713 3.31511 10.8805 2.94566C12.3913 2.607 12.0521 0.113216 10.3255 0.451878Z" fill="#2B45E2"/>
<path fill-rule="evenodd" clip-rule="evenodd" d="M7.76847 3.96164C6.44263 4.23872 6.72013 6.42463 8.23097 6.14755C9.61847 5.87046 9.24847 3.65376 7.76847 3.96164Z" fill="#2B45E2"/>
<path fill-rule="evenodd" clip-rule="evenodd" d="M10.5385 7.19428C9.30515 7.53295 9.86015 9.34941 11.0627 9.04153C12.2035 8.73366 11.7718 6.82483 10.5385 7.19428Z" fill="#2B45E2"/>
<path d="M39.4961 26.067V9.22626H43.0419V22.9882H51.3978V26.067H39.4961Z" fill="black"/>
<path d="M60.124 26.067C60.0315 25.7592 59.939 25.3281 59.9081 24.9587C59.1065 25.8207 57.8115 26.4057 56.1156 26.4057C53.279 26.4057 51.9531 25.0203 51.9531 22.9883C51.9531 19.3862 54.3581 18.9859 57.6881 18.5241C59.3531 18.3086 59.7848 17.9699 59.7848 17.1079C59.7848 16.3074 58.9831 15.8148 57.6881 15.8148C56.1773 15.8148 55.5915 16.5537 55.4373 17.6621H52.354C52.4156 15.0759 53.834 13.2595 57.8423 13.2595C61.8198 13.2595 63.1765 15.0451 63.1765 18.1855V26.067H60.124ZM59.9081 19.9403C59.569 20.279 58.9831 20.4329 57.7806 20.6792C55.8998 21.0487 55.2831 21.5721 55.2831 22.6188C55.2831 23.5425 55.8381 24.0043 56.8865 24.0043C58.5823 24.0043 59.8465 22.7728 59.8773 21.295L59.9081 19.9403Z" fill="black"/>
<path d="M64.6562 26.067V9.01074H67.8938V15.199C68.8188 13.8752 70.0521 13.2594 71.5938 13.2594C74.8313 13.2594 76.7121 15.9379 76.7121 19.694C76.7121 23.9119 74.4612 26.4057 71.3162 26.4057C69.8054 26.4057 68.6337 25.8207 67.8321 24.5584L67.8012 26.067H64.6562ZM73.3821 19.9095C73.3821 17.3541 72.4571 16.0611 70.5454 16.0611C68.7262 16.0611 67.7704 17.4157 67.7704 20.125C67.7704 22.2186 69.0037 23.6964 70.5762 23.6964C72.2412 23.6964 73.3821 22.157 73.3821 19.9095Z" fill="black"/>
<path d="M87.4431 14.183C87.2581 12.459 86.2098 11.6277 84.0823 11.6277C82.109 11.6277 81.0606 12.3358 81.0606 13.5981C81.0606 14.6756 81.8006 15.2606 83.6815 15.7224C85.5931 16.1842 87.4431 16.646 88.6765 17.2002C90.1565 17.8468 91.3281 18.8935 91.3281 21.2949C91.3281 24.9894 88.5223 26.652 84.6065 26.652C80.444 26.652 77.5456 24.8047 77.4531 21.0179H80.8448C80.9065 22.742 82.3556 23.8195 84.6065 23.8195C86.7031 23.8195 87.8748 22.9267 87.8748 21.4489C87.8748 20.4637 87.3815 19.7864 85.254 19.3246C83.1573 18.8627 81.8315 18.5549 80.629 18.0315C78.8406 17.231 77.8231 15.9995 77.8231 13.8752C77.8231 10.858 79.889 8.70288 83.9898 8.70288C88.2448 8.70288 90.6498 11.0119 90.7731 14.2446H87.4431V14.183Z" fill="black"/>
<path d="M95.3031 20.6792C95.3956 22.5573 96.4747 23.7888 98.1089 23.7888C99.1881 23.7888 100.113 23.2654 100.36 22.4033H103.751C102.981 24.9587 100.946 26.4057 98.2631 26.4057C94.1006 26.4057 92.0039 24.1274 92.0039 19.6017C92.0039 15.7532 94.2239 13.2595 98.0472 13.2595C101.871 13.2595 103.906 15.7532 103.906 20.6792H95.3031ZM100.514 18.6165C100.452 16.7692 99.2497 15.8764 97.9547 15.8764C96.6289 15.8764 95.5497 16.8924 95.4264 18.6165H100.514Z" fill="black"/>
<path d="M112.878 26.067C112.785 25.7592 112.693 25.3281 112.662 24.9587C111.86 25.8207 110.565 26.4057 108.87 26.4057C106.033 26.4057 104.707 25.0203 104.707 22.9883C104.707 19.3862 107.112 18.9859 110.442 18.5241C112.107 18.3086 112.539 17.9699 112.539 17.1079C112.539 16.3074 111.737 15.8148 110.442 15.8148C108.931 15.8148 108.345 16.5537 108.191 17.6621H105.108C105.17 15.0759 106.588 13.2595 110.596 13.2595C114.574 13.2595 115.93 15.0451 115.93 18.1855V26.067H112.878ZM112.631 19.9403C112.292 20.279 111.706 20.4329 110.504 20.6792C108.623 21.0487 108.006 21.5721 108.006 22.6188C108.006 23.5425 108.561 24.0043 109.61 24.0043C111.305 24.0043 112.57 22.7728 112.6 21.295L112.631 19.9403Z" fill="black"/>
<path d="M117.379 26.067V13.5673H120.493V15.0759C121.572 13.4134 122.867 13.2595 124.193 13.2595H124.625V16.6461C124.316 16.5845 124.008 16.5845 123.7 16.5845C121.665 16.5845 120.678 17.6005 120.678 19.6017V26.0978H117.379V26.067Z" fill="black"/>
<path d="M136.033 21.5413C135.663 24.4353 133.319 26.3749 130.298 26.3749C126.906 26.3749 124.562 24.1274 124.562 19.6632C124.562 15.1991 126.906 13.2595 130.421 13.2595C133.658 13.2595 135.878 15.1067 136.094 18.0623H132.764C132.579 16.7692 131.654 15.9995 130.39 15.9995C129.002 15.9995 127.862 16.8924 127.862 19.6017C127.862 22.311 129.003 23.6348 130.298 23.6348C131.593 23.6348 132.61 22.8959 132.733 21.5413H136.033Z" fill="black"/>
<path d="M145.005 26.067V18.3086C145.005 16.4305 144.358 15.8456 142.878 15.8456C141.213 15.8456 140.319 17.2002 140.319 18.8935V26.0362H137.02V9.01074H140.319V15.199C140.812 14.0907 142.323 13.2594 143.988 13.2594C146.547 13.2594 148.335 14.768 148.335 17.231V26.067H145.005Z" fill="black"/>
</svg>
