<svg width="104" height="98" viewBox="0 0 104 98" fill="none" xmlns="http://www.w3.org/2000/svg">
<path fill-rule="evenodd" clip-rule="evenodd" d="M37.553 61.8835L45.152 68.9584C42.8212 69.8169 40.094 70.2462 36.9704 70.2462C24.6438 70.2462 18.4805 63.5815 18.4805 50.262V44.126L28.2577 53.4637C28.3196 54.1133 28.4022 54.7146 28.5057 55.2679C28.7625 56.6305 29.2268 57.8351 29.8786 58.8619C30.5404 59.8986 31.4491 60.6589 32.6146 61.1526C33.7801 61.6463 35.232 61.8931 36.9704 61.8931C37.1685 61.8931 37.3627 61.8899 37.553 61.8835Z" fill="#F07C00"/>
<path fill-rule="evenodd" clip-rule="evenodd" d="M18.4336 39.0018L28.0736 48.0977V42.0994L18.4336 32.9517V39.0018Z" fill="#F07C00"/>
<path fill-rule="evenodd" clip-rule="evenodd" d="M18.4805 27.6118L28.1205 36.422V27.6118H18.6469H18.4805Z" fill="#F07C00"/>
<path fill-rule="evenodd" clip-rule="evenodd" d="M45.7974 52.7132L55.4276 61.5072V50.262V34.4332L66.0214 34.4289L66.0931 32.6124L66.082 28.618L66.0859 27.2537L45.779 27.2785L45.7844 34.3758L45.7974 34.3763V50.262C45.7974 51.059 45.7747 51.8074 45.7305 52.507L45.7974 52.5679V52.7132Z" fill="#009035"/>
<path fill-rule="evenodd" clip-rule="evenodd" d="M52.3706 70.0325H55.3999L55.4478 66.5786L45.1862 57.2365L44.5956 58.7458L43.9782 59.6792L43.2586 60.4353L42.457 61.0225L52.3706 70.0325Z" fill="#F07C00"/>
<path fill-rule="evenodd" clip-rule="evenodd" d="M69.9652 34.5087C75.8232 35.2145 76.3315 42.0299 74.6826 45.2838C72.3392 49.9082 67.0996 48.7588 61.0352 48.7748C61.8896 50.5802 70.1769 61.8822 71.9909 64.4212C72.3887 64.9779 73.408 66.5634 74.4003 67.7787H74.4001L74.4103 67.791C74.4501 67.8397 74.4899 67.8877 74.5295 67.9351L76.1469 69.89H85.568L85.1469 69.302H85.165L74.9937 55.3995C76.1762 54.3837 77.8767 53.6631 78.6412 52.9261C87.4305 45.2503 84.6583 28.3538 69.965 27.3202L69.9652 34.5087Z" fill="#009035"/>
</svg>
